:SAMPLES-PER-SECOND 30
:FULLY-SPECIFIED
:DEGREES
425
root  -2.14739 38.4692 -27.0791 -149.994 -78.4321 140.997
RightUpLeg  1.61865 -0.884015 -18.2888
RightLeg  60.5962 1.65048 2.71795
RightFoot  13.6713 -1.85433 8.70031
RightToes  0.00048216 0.542163 -0.142577
Spine  10.5966 0.409481 -6.73783
Spine1  10.2141 0.522443 -3.46955
HEad  4.88765 5.92901 2.15887
LeftShoulder1  6.82375 -11.2912 -39.8766
LeftArm  -14.2847 22.504 -19.2726
LeftForeArm  47.8974 -77.9751 -63.8186
LeftHand  -0.25398 0.0180481 5.50724
RightShoulder  5.45358 9.62084 35.5801
RightArm  -5.64374 -17.0517 29.5529
RightForeArm  39.3964 77.6277 97.9253
RightHand  1.13279 -13.163 -17.5231
LeftUpLeg  -14.3682 26.8574 -10.6577
LeftLeg  26.5701 5.94726 3.57984
LeftFoot  -6.02597 -0.256228 6.30535
LeftToes  1.06245e-005 4.65855e-005 -8.18504e-006
426
root  -3.53471 38.892 -26.8426 -150.607 -78.1751 141.689
RightUpLeg  -4.53307 -2.04105 -17.8424
RightLeg  64.478 -0.275504 -1.16046
RightFoot  11.093 -1.06235 5.74246
RightToes  0.00048216 0.542163 -0.142577
Spine  10.8906 -0.200292 -8.08434
Spine1  10.163 -0.458098 -2.15153
HEad  5.1662 7.45689 1.16542
LeftShoulder1  6.88669 -11.3944 -39.9746
LeftArm  -14.1533 21.8122 -19.5286
LeftForeArm  44.3399 -77.5984 -60.5113
LeftHand  -0.25398 0.0180481 5.50724
RightShoulder  5.38168 9.60204 35.1004
RightArm  -5.36595 -16.5538 29.525
RightForeArm  37.751 77.6403 96.9686
RightHand  1.11407 -12.807 -18.0322
LeftUpLeg  -10.6866 27.9846 -10.0951
LeftLeg  24.3624 5.27335 2.95767
LeftFoot  -6.89793 -0.162795 5.25439
LeftToes  1.06245e-005 4.65855e-005 -8.18504e-006
427
root  -4.87021 39.2852 -26.6482 -151.834 -78.9538 142.94
RightUpLeg  -9.39901 -3.86874 -16.1742
RightLeg  64.2073 -0.828639 -2.47328
RightFoot  7.86102 -0.778851 4.93665
RightToes  0.00048216 0.542163 -0.142577
Spine  11.4979 -0.843918 -8.34418
Spine1  10.1865 -1.4105 -1.25334
HEad  5.59413 8.12898 0.416337
LeftShoulder1  6.96772 -11.5071 -40.1576
LeftArm  -13.9146 20.5666 -20.1041
LeftForeArm  41.4014 -77.1996 -57.321
LeftHand  -0.25398 0.0180481 5.50724
RightShoulder  5.3252 9.53834 34.872
RightArm  -5.82402 -17.1395 29.1157
RightForeArm  38.2424 77.5925 98.1465
RightHand  1.09706 -12.6004 -18.2593
LeftUpLeg  -6.79995 28.0032 -8.80826
LeftLeg  22.0469 4.86481 2.51263
LeftFoot  -8.01459 -0.0797913 4.42173
LeftToes  1.06245e-005 4.65855e-005 -8.18504e-006
428
root  -6.1999 39.5969 -26.4818 -152.641 -79.4118 144.237
RightUpLeg  -14.154 -5.16796 -14.1951
RightLeg  60.7714 -0.662888 -1.8173
RightFoot  6.37187 -0.660509 4.5141
RightToes  0.00048216 0.542163 -0.142577
Spine  11.4979 -1.25261 -8.46934
Spine1  10.3096 -1.9964 -0.760124
HEad  5.98012 8.39246 0.0848233
LeftShoulder1  6.98897 -11.5539 -40.1547
LeftArm  -13.6005 19.3672 -21.033
LeftForeArm  40.1129 -76.9548 -55.4328
LeftHand  -0.25398 0.0180481 5.50724
RightShoulder  5.30318 9.50743 34.8008
RightArm  -6.56542 -18.2658 28.4131
RightForeArm  39.9937 77.4904 100.631
RightHand  1.05434 -12.2713 -18.3991
LeftUpLeg  -3.30656 26.5773 -7.81664
LeftLeg  19.2952 5.73286 1.61084
LeftFoot  -8.71341 -0.0399767 4.04194
LeftToes  1.06245e-005 4.65855e-005 -8.18504e-006
429
root  -7.52629 39.8233 -26.3552 -151.898 -79.233 144.351
RightUpLeg  -18.3494 -5.98618 -12.3298
RightLeg  54.4112 -0.563055 -1.24721
RightFoot  4.90076 -0.499663 3.7358
RightToes  0.00048216 0.542163 -0.142577
Spine  10.9587 -1.43712 -9.32893
Spine1  10.4705 -2.41838 -0.0470337
HEad  6.2124 8.82103 -0.130769
LeftShoulder1  6.95385 -11.5098 -40.0622
LeftArm  -13.4561 18.5252 -22.0794
LeftForeArm  39.8939 -76.8526 -54.5571
LeftHand  -0.25398 0.0180481 5.50724
RightShoulder  5.24124 9.42818 34.5745
RightArm  -7.11831 -19.2432 27.8501
RightForeArm  41.8624 77.3685 103.078
RightHand  0.990181 -11.8102 -18.5434
LeftUpLeg  -0.386907 20.6246 -7.3682
LeftLeg  16.5571 11.4557 -0.0168279
LeftFoot  -8.90258 -0.0246266 3.66845
LeftToes  1.06245e-005 4.65855e-005 -8.18504e-006
430
root  -8.84888 39.8993 -26.3002 -149.316 -78.8874 142.639
RightUpLeg  -21.051 -7.06118 -10.5328
RightLeg  44.9143 -1.06367 -1.41344
RightFoot  2.86922 -0.422393 3.54834
RightToes  0.00048216 0.542163 -0.142577
Spine  10.3996 -1.56053 -11.0022
Spine1  10.5992 -2.92609 0.894217
HEad  6.26869 9.4341 -0.509392
LeftShoulder1  6.9387 -11.4668 -40.0922
LeftArm  -13.5609 17.8888 -22.8982
LeftForeArm  39.6043 -76.7533 -53.7842
LeftHand  -0.25398 0.0180481 5.50724
RightShoulder  5.15012 9.32524 34.1947
RightArm  -7.59556 -20.0116 27.6014
RightForeArm  44.3741 77.2094 105.825
RightHand  0.970458 -11.6545 -18.63
LeftUpLeg  1.63458 14.0639 -7.82363
LeftLeg  14.8871 18.1194 -1.36012
LeftFoot  -9.71704 0.0123142 3.24274
LeftToes  1.06245e-005 4.65855e-005 -8.18504e-006
